<svg width="1080" height="1080" viewBox="0 0 1080 1080" fill="none" xmlns="http://www.w3.org/2000/svg">
  <g clip-path="url(#clip0_11_41)">
    <path
      d="M138.398 359.488L98.5804 346.446C98.5804 346.446 94.5791 345.579 93.4056 347.081C92.2322 348.583 98.0188 389.079 98.0188 389.079L126.592 451.409L146.101 366.151L138.398 359.488Z"
      fill="#C8DAEA" />
    <path
      d="M118.813 368.142L97.6069 348.105C97.6069 348.105 91.2979 341.725 92.833 354.216C94.3682 366.707 94.5327 377.644 94.5327 377.644"
      fill="#A9C6D8" />
    <path
      d="M137.132 358.825L162.682 341.622C162.682 341.622 165.955 339.738 167.799 342.609C168.179 343.2 168.336 343.917 168.24 345.618C167.809 353.516 130.039 468.189 130.039 468.189C130.039 468.189 128.916 471.383 127.185 472.431C126.782 472.711 126.313 472.878 125.824 472.917C125.336 472.956 124.846 472.864 124.405 472.651C123.612 472.292 122.874 471.823 122.211 471.26C121.624 470.79 121.131 470.289 120.312 469.562C111.94 462.143 59.0259 394.523 59.0259 394.523C59.0259 394.523 55.9463 390.544 58.5476 386.943C59.1915 386.062 60.0062 385.32 60.9432 384.76C61.8802 384.2 62.9203 383.835 64.0016 383.686C75.2692 381.434 109.75 370.166 117.353 367.663C117.526 367.608 117.709 367.59 117.889 367.612C118.069 367.633 118.243 367.693 118.398 367.787C118.825 368.003 118.969 368.762 118.969 368.762C118.969 368.762 123.413 438.764 126.41 442.875C126.642 443.194 127.04 442.987 127.247 442.453C128.381 438.921 135.505 367.887 136.292 360.047C136.473 359.58 136.761 359.161 137.132 358.825Z"
      fill="white" />
    <path
      d="M116.606 620.981L74.7357 619.419C74.7357 619.419 70.6504 619.689 69.9364 621.456C69.2224 623.223 85.9472 660.556 85.9472 660.556L130.594 712.595L125.847 625.262L116.606 620.981Z"
      fill="#C8DAEA" />
    <path
      d="M100.164 634.698L74.2567 621.283C74.2567 621.283 66.4333 616.888 71.352 628.472C76.2707 640.056 79.4434 650.524 79.4434 650.524"
      fill="#A9C6D8" />
    <path
      d="M115.205 620.693L135.023 597.114C135.023 597.114 137.651 594.4 140.214 596.651C140.743 597.115 141.092 597.761 141.468 599.423C143.23 607.134 138.532 727.775 138.532 727.775C138.532 727.775 138.333 731.155 136.957 732.639C136.648 733.019 136.243 733.31 135.784 733.482C135.325 733.653 134.829 733.7 134.346 733.617C133.485 733.49 132.646 733.243 131.854 732.885C131.16 732.594 130.548 732.249 129.56 731.776C119.467 726.951 49.9645 676.536 49.9645 676.536C49.9645 676.536 45.9076 673.561 47.4157 669.382C47.7917 668.358 48.3701 667.419 49.1165 666.623C49.863 665.827 50.7621 665.189 51.7603 664.747C61.9709 659.478 92.0102 639.142 98.6284 634.64C98.7795 634.539 98.9503 634.472 99.1296 634.443C99.3088 634.414 99.4922 634.423 99.6674 634.471C100.137 634.561 100.485 635.251 100.485 635.251C100.485 635.251 124.052 701.316 128.066 704.442C128.377 704.685 128.703 704.376 128.754 703.806C128.871 700.098 116.139 629.851 114.734 622.098C114.78 621.6 114.941 621.118 115.205 620.693Z"
      fill="white" />
    <path
      d="M358.961 153.696L351.063 112.548C351.063 112.548 349.882 108.628 348 108.33C346.117 108.032 313.503 132.726 313.503 132.726L272.841 187.934L356.868 163.663L358.961 153.696Z"
      fill="#C8DAEA" />
    <path
      d="M341.897 140.761L349.141 112.5C349.141 112.5 351.663 103.889 341.482 111.287C331.301 118.686 321.816 124.132 321.816 124.132"
      fill="#A9C6D8" />
    <path
      d="M358.927 152.267L386.36 166.273C386.36 166.273 389.594 168.223 387.978 171.227C387.644 171.846 387.094 172.331 385.559 173.071C378.443 176.524 259.836 199.084 259.836 199.084C259.836 199.084 256.498 199.65 254.742 198.644C254.303 198.428 253.928 198.098 253.658 197.69C253.387 197.281 253.23 196.808 253.202 196.319C253.132 195.452 253.184 194.579 253.355 193.726C253.482 192.985 253.681 192.311 253.92 191.242C256.35 180.323 289.838 101.26 289.838 101.26C289.838 101.26 291.825 96.6381 296.235 97.1675C297.318 97.3034 298.363 97.6559 299.307 98.2041C300.251 98.7522 301.074 99.4848 301.729 100.358C309.161 109.122 335.733 133.816 341.608 139.252C341.74 139.377 341.844 139.528 341.912 139.696C341.981 139.864 342.013 140.045 342.006 140.227C342.025 140.705 341.43 141.199 341.43 141.199C341.43 141.199 282.359 179.024 280.216 183.637C280.05 183.995 280.424 184.243 280.991 184.165C284.631 183.444 350.213 155.237 357.451 152.124C357.947 152.056 358.453 152.105 358.927 152.267Z"
      fill="white" />
    <path
      d="M543.088 920.493L525.29 958.424C525.29 958.424 523.942 962.29 525.29 963.638C526.637 964.986 567.537 964.177 567.537 964.177L632.884 943.413L550.639 913.66L543.088 920.493Z"
      fill="#C8DAEA" />
    <path
      d="M549.29 940.987L526.818 959.593C526.818 959.593 519.716 965.078 532.301 965.076C544.886 965.075 555.762 966.244 555.762 966.244"
      fill="#A9C6D8" />
    <path
      d="M542.275 921.669L528.314 894.214C528.314 894.214 526.843 890.735 529.917 889.255C530.551 888.949 531.281 888.881 532.958 889.184C540.744 890.574 649.96 942.037 649.96 942.037C649.96 942.037 652.992 943.541 653.822 945.388C654.05 945.821 654.16 946.307 654.139 946.797C654.117 947.286 653.967 947.761 653.702 948.174C653.248 948.916 652.693 949.592 652.053 950.181C651.515 950.706 650.958 951.135 650.136 951.859C641.752 959.264 568.188 1003.54 568.188 1003.54C568.188 1003.54 563.864 1006.12 560.607 1003.09C559.811 1002.35 559.173 1001.45 558.731 1000.45C558.29 999.452 558.054 998.376 558.038 997.284C557.177 985.826 550.195 950.229 548.637 942.378C548.603 942.2 548.608 942.016 548.651 941.84C548.694 941.663 548.775 941.498 548.887 941.356C549.153 940.958 549.925 940.908 549.925 940.908C549.925 940.908 619.947 945.028 624.392 942.555C624.736 942.363 624.58 941.943 624.075 941.672C620.707 940.116 551.071 924.388 543.385 922.652C542.944 922.415 542.563 922.079 542.275 921.669Z"
      fill="white" />
    <path
      d="M948.744 372.669L990.343 367.661C990.343 367.661 994.336 366.756 994.765 364.899C995.193 363.042 972.834 328.785 972.834 328.785L920.597 284.371L938.947 369.886L948.744 372.669Z"
      fill="#C8DAEA" />
    <path
      d="M962.837 356.549L990.524 365.746C990.524 365.746 998.939 368.863 992.268 358.191C985.598 347.519 980.827 337.676 980.827 337.676"
      fill="#A9C6D8" />
    <path
      d="M950.172 372.735L934.286 399.124C934.286 399.124 932.116 402.215 929.232 400.392C928.637 400.017 928.192 399.434 927.56 397.851C924.613 390.511 910.381 270.62 910.381 270.62C910.381 270.62 910.049 267.251 911.175 265.569C911.422 265.146 911.776 264.795 912.203 264.554C912.629 264.312 913.112 264.188 913.602 264.195C914.472 264.186 915.339 264.298 916.178 264.529C916.908 264.707 917.567 264.952 918.617 265.265C929.34 268.451 1005.87 307.373 1005.87 307.373C1005.87 307.373 1010.35 309.677 1009.51 314.04C1009.3 315.111 1008.87 316.128 1008.26 317.031C1007.65 317.935 1006.86 318.705 1005.94 319.297C996.684 326.1 970.195 350.884 964.363 356.366C964.229 356.489 964.071 356.582 963.899 356.639C963.726 356.696 963.544 356.715 963.363 356.695C962.885 356.68 962.434 356.053 962.434 356.053C962.434 356.053 928.821 294.488 924.369 292.028C924.024 291.837 923.75 292.193 923.788 292.764C924.253 296.445 947.816 363.835 950.417 371.273C950.451 371.773 950.367 372.273 950.172 372.735Z"
      fill="white" />
    <path
      d="M713.238 154.405L741.347 123.334C741.347 123.334 743.767 120.032 742.872 118.349C741.977 116.666 702.628 105.481 702.628 105.481L634.066 106.232L704.018 158.732L713.238 154.405Z"
      fill="#C8DAEA" />
    <path
      d="M713.298 132.993L740.228 121.77C740.228 121.77 748.623 118.602 736.587 114.923C724.552 111.245 714.494 106.947 714.494 106.947"
      fill="#A9C6D8" />
    <path
      d="M714.358 153.518L719.682 183.856C719.682 183.856 720.072 187.613 716.699 188.129C716.004 188.236 715.286 188.088 713.771 187.308C706.731 183.702 617.334 102.556 617.334 102.556C617.334 102.556 614.874 100.231 614.62 98.2226C614.528 97.7414 614.566 97.2443 614.729 96.7824C614.893 96.3204 615.176 95.9102 615.55 95.5935C616.201 95.016 616.929 94.5321 617.713 94.1557C618.381 93.8106 619.039 93.5637 620.037 93.1115C630.22 88.4808 713.516 67.6448 713.516 67.6448C713.516 67.6448 718.403 66.4496 720.634 70.2906C721.177 71.2373 721.525 72.2836 721.655 73.3673C721.785 74.4509 721.696 75.5497 721.392 76.5981C718.866 87.8072 715.135 123.89 714.329 131.854C714.309 132.034 714.251 132.208 714.158 132.364C714.065 132.52 713.94 132.655 713.791 132.758C713.421 133.061 712.668 132.883 712.668 132.883C712.668 132.883 646.91 108.471 641.936 109.536C641.551 109.619 641.577 110.067 641.981 110.473C644.747 112.946 706.742 148.346 713.584 152.253C713.937 152.609 714.203 153.042 714.358 153.518Z"
      fill="white" />
    <path
      d="M188.527 875.262L163.233 908.664C163.233 908.664 161.11 912.165 162.148 913.763C163.186 915.362 203.36 923.075 203.36 923.075L271.596 916.351L197.335 870.148L188.527 875.262Z"
      fill="#C8DAEA" />
    <path
      d="M190.332 896.597L164.484 910.125C164.484 910.125 156.397 914.013 168.707 916.628C181.017 919.243 191.412 922.648 191.412 922.648"
      fill="#A9C6D8" />
    <path
      d="M187.488 876.243L179.54 846.485C179.54 846.485 178.825 842.776 182.139 841.967C182.822 841.8 183.551 841.885 185.128 842.53C192.455 845.509 288.584 918.555 288.584 918.555C288.584 918.555 291.238 920.657 291.666 922.635C291.799 923.106 291.805 923.605 291.682 924.079C291.56 924.554 291.314 924.987 290.969 925.335C290.371 925.967 289.688 926.513 288.939 926.956C288.304 927.358 287.67 927.661 286.715 928.199C276.975 933.699 195.812 961.716 195.812 961.716C195.812 961.716 191.047 963.332 188.49 959.7C187.866 958.805 187.429 957.793 187.205 956.724C186.981 955.656 186.974 954.554 187.185 953.483C188.725 942.096 189.296 905.825 189.405 897.822C189.409 897.64 189.452 897.462 189.531 897.298C189.61 897.135 189.723 896.99 189.862 896.874C190.205 896.54 190.97 896.652 190.97 896.652C190.97 896.652 258.605 915.24 263.468 913.745C263.845 913.629 263.779 913.185 263.342 912.816C260.371 910.594 195.526 880.731 188.369 877.435C187.986 877.112 187.685 876.704 187.488 876.243Z"
      fill="white" />
    <path
      d="M931.769 644.984L964.724 670.858C964.724 670.858 968.188 673.041 969.804 672.031C971.421 671.021 979.834 630.988 979.834 630.988L974.301 562.645L926.809 636.089L931.769 644.984Z"
      fill="#C8DAEA" />
    <path
      d="M953.133 643.551L966.207 669.632C966.207 669.632 969.953 677.786 972.783 665.523C975.613 653.26 979.199 642.927 979.199 642.927"
      fill="#A9C6D8" />
    <path
      d="M932.732 646.04L902.839 653.468C902.839 653.468 899.119 654.118 898.368 650.79C898.213 650.104 898.311 649.377 898.983 647.812C902.089 640.537 976.802 545.698 976.802 545.698C976.802 545.698 978.95 543.081 980.935 542.688C981.409 542.563 981.907 542.566 982.379 542.697C982.852 542.827 983.281 543.081 983.623 543.432C984.244 544.041 984.778 544.733 985.208 545.49C985.599 546.132 985.891 546.771 986.412 547.735C991.741 557.57 1018.34 639.21 1018.34 639.21C1018.34 639.21 1019.87 644.001 1016.19 646.495C1015.29 647.103 1014.27 647.522 1013.2 647.728C1012.12 647.933 1011.02 647.921 1009.95 647.691C998.597 645.953 962.341 644.748 954.341 644.5C954.16 644.493 953.982 644.447 953.82 644.365C953.658 644.283 953.515 644.168 953.401 644.026C953.074 643.678 953.199 642.915 953.199 642.915C953.199 642.915 972.964 575.614 971.555 570.726C971.445 570.348 971 570.405 970.624 570.837C968.35 573.768 937.36 638.082 933.939 645.18C933.61 645.557 933.196 645.852 932.732 646.04Z"
      fill="white" />
    <path
      d="M865.198 906.917L891.489 939.541C891.489 939.541 894.372 942.447 896.175 941.827C897.977 941.206 915.18 904.092 915.18 904.092L925.163 836.255L862.367 897.134L865.198 906.917Z"
      fill="#C8DAEA" />
    <path
      d="M886.337 910.326L893.209 938.68C893.209 938.68 895.025 947.467 900.541 936.155C906.057 924.843 911.875 915.581 911.875 915.581"
      fill="#A9C6D8" />
    <path
      d="M865.899 908.162L835.102 908.675C835.102 908.675 831.33 908.472 831.348 905.06C831.351 904.357 831.609 903.67 832.617 902.296C837.28 895.907 931.412 820.305 931.412 820.305C931.412 820.305 934.093 818.239 936.116 818.302C936.606 818.287 937.091 818.402 937.521 818.636C937.952 818.869 938.313 819.213 938.567 819.632C939.036 820.365 939.4 821.16 939.649 821.993C939.885 822.707 940.026 823.396 940.317 824.452C943.298 835.234 950.847 920.764 950.847 920.764C950.847 920.764 951.263 925.777 947.12 927.381C946.1 927.769 945.012 927.948 943.922 927.907C942.831 927.866 941.76 927.606 940.772 927.142C930.096 922.894 895.04 913.564 887.301 911.523C887.126 911.475 886.963 911.39 886.823 911.274C886.684 911.158 886.571 911.013 886.492 910.85C886.251 910.436 886.544 909.721 886.544 909.721C886.544 909.721 920.943 848.592 920.669 843.512C920.648 843.118 920.201 843.074 919.737 843.41C916.862 845.755 872.199 901.449 867.269 907.596C866.863 907.889 866.394 908.083 865.899 908.162Z"
      fill="white" />
  </g>
  <defs>
    <clipPath id="clip0_11_41">
      <rect width="1080" height="1080" fill="white" />
    </clipPath>
  </defs>
</svg>