<svg width="5643" height="4310" viewBox="0 0 5643 4310" fill="none" xmlns="http://www.w3.org/2000/svg">
    <g clip-path="url(#clip0_1_2)">
        <path d="M3071.56 195H2981.56V1041H3071.56V195Z" fill="url(#paint0_linear_1_2)" stroke="#9D9E9E"
            stroke-width="17.63" />
        <path
            d="M2906.56 1233C3026.4 1233 3123.56 1134.5 3123.56 1013C3123.56 891.497 3026.4 793 2906.56 793C2786.71 793 2689.56 891.497 2689.56 1013C2689.56 1134.5 2786.71 1233 2906.56 1233Z"
            stroke="#9D9E9E" stroke-width="17.63" />
        <path fill-rule="evenodd" clip-rule="evenodd"
            d="M5074.56 3153C4281.56 2272 3060.56 824 2556.56 660C2052.56 496 705.556 924 579.556 1025C453.556 1126 427.556 1427 478.556 1529C560.556 1689 2806.56 3164 3751.56 4211C4104.56 4601 5614.56 3632 5073.56 3153H5074.56Z"
            fill="url(#paint1_linear_1_2)" />
        <path fill-rule="evenodd" clip-rule="evenodd"
            d="M690.556 970C635.556 993 596.556 1012 579.556 1026C453.556 1127 427.556 1428 478.556 1530C560.556 1690 2806.56 3165 3751.56 4212C4104.56 4602 5614.56 3633 5073.56 3154C5331.56 3387 4223.56 4186 3921.56 3947C3660.56 3741 1123.56 1757 631.556 1218C547.556 1126 593.556 1019 689.556 970H690.556Z"
            fill="#D9DADA" />
        <path fill-rule="evenodd" clip-rule="evenodd"
            d="M2556.56 660C2120.56 518 1050.56 821 690.556 970C636.556 992 599.556 1011 581.556 1024C580.556 1024 580.556 1025 579.556 1025C453.556 1126 427.556 1427 478.556 1529C560.556 1689 2806.56 3164 3751.56 4211C4104.56 4601 5614.56 3632 5073.56 3153C4280.56 2272 3059.56 824 2555.56 660H2556.56Z"
            stroke="#9D9E9E" stroke-width="17.63" />
        <path fill-rule="evenodd" clip-rule="evenodd"
            d="M2018.56 1721L2002.56 1764L2001.56 1769L2000.56 1775L1999.56 1781V1786V1792L2000.56 1798L2001.56 1803L2002.56 1809L2004.56 1814L2007.56 1820L2010.56 1825L2013.56 1830L2016.56 1835L2020.56 1840L2024.56 1845L2029.56 1849L2034.56 1854L2039.56 1858L2045.56 1862L2051.56 1866L2057.56 1870L2063.56 1873L2070.56 1877L2077.56 1880L2084.56 1883L2092.56 1885L2099.56 1888L2107.56 1890L2115.56 1892L2124.56 1894L2132.56 1895L2141.56 1897L2149.56 1898H2158.56L2167.56 1899H2177.56H2186.56L2195.56 1898H2204.56L2212.56 1897L2221.56 1895L2229.56 1894L2238.56 1892L2246.56 1890L2254.56 1888L2261.56 1885L2269.56 1883L2276.56 1880L2283.56 1877L2290.56 1873L2296.56 1870L2302.56 1866L2308.56 1862L2314.56 1858L2319.56 1854L2324.56 1849L2329.56 1845L2333.56 1840L2337.56 1835L2340.56 1830L2344.56 1825L2346.56 1820L2349.56 1814L2364.56 1771L2362.56 1777L2359.56 1782L2356.56 1787L2352.56 1792L2348.56 1797L2344.56 1802L2339.56 1806L2334.56 1811L2329.56 1815L2324.56 1819L2318.56 1823L2312.56 1827L2305.56 1830L2298.56 1834L2291.56 1837L2284.56 1840L2277.56 1842L2269.56 1845L2261.56 1847L2253.56 1849L2245.56 1851L2236.56 1852L2228.56 1854L2219.56 1855H2210.56L2201.56 1856H2192.56H2183.56L2174.56 1855H2165.56L2156.56 1854L2148.56 1852L2139.56 1851L2131.56 1849L2123.56 1847L2115.56 1845L2107.56 1842L2100.56 1840L2093.56 1837L2086.56 1834L2079.56 1830L2072.56 1827L2066.56 1823L2060.56 1819L2055.56 1815L2049.56 1811L2045.56 1806L2040.56 1802L2036.56 1797L2032.56 1792L2028.56 1787L2025.56 1782L2022.56 1777L2020.56 1771L2018.56 1766L2016.56 1760L2015.56 1755L2014.56 1749V1743V1738L2015.56 1732L2016.56 1726L2018.56 1721Z"
            fill="#B2B3B3" />
        <path
            d="M2192.56 1856C2290.86 1856 2370.56 1805.41 2370.56 1743C2370.56 1680.59 2290.86 1630 2192.56 1630C2094.25 1630 2014.56 1680.59 2014.56 1743C2014.56 1805.41 2094.25 1856 2192.56 1856Z"
            fill="#289FD9" />
        <path fill-rule="evenodd" clip-rule="evenodd"
            d="M2427.56 1586L2412.56 1629L2410.56 1634L2409.56 1640V1646L2408.56 1652L2409.56 1657V1663L2410.56 1669L2412.56 1674L2414.56 1680L2416.56 1685L2419.56 1690L2422.56 1695L2426.56 1700L2430.56 1705L2434.56 1710L2439.56 1714L2444.56 1719L2449.56 1723L2455.56 1727L2460.56 1731L2467.56 1735L2473.56 1738L2480.56 1742L2487.56 1745L2494.56 1748L2501.56 1750L2509.56 1753L2517.56 1755L2525.56 1757L2533.56 1759L2542.56 1761L2550.56 1762L2559.56 1763H2568.56L2577.56 1764H2586.56H2595.56L2604.56 1763H2613.56L2622.56 1762L2631.56 1761L2639.56 1759L2647.56 1757L2655.56 1755L2663.56 1753L2671.56 1750L2678.56 1748L2686.56 1745L2693.56 1742L2699.56 1738L2706.56 1735L2712.56 1731L2718.56 1727L2723.56 1723L2729.56 1719L2734.56 1714L2738.56 1710L2743.56 1705L2746.56 1700L2750.56 1695L2753.56 1690L2756.56 1685L2758.56 1680L2774.56 1637L2771.56 1642L2769.56 1647L2765.56 1652L2762.56 1657L2758.56 1662L2754.56 1667L2749.56 1671L2744.56 1676L2739.56 1680L2733.56 1684L2727.56 1688L2721.56 1692L2715.56 1695L2708.56 1699L2701.56 1702L2694.56 1705L2686.56 1707L2679.56 1710L2671.56 1712L2663.56 1714L2654.56 1716L2646.56 1718L2637.56 1719L2629.56 1720H2620.56L2611.56 1721H2602.56H2592.56L2583.56 1720H2574.56L2566.56 1719L2557.56 1718L2549.56 1716L2540.56 1714L2532.56 1712L2524.56 1710L2517.56 1707L2509.56 1705L2502.56 1702L2495.56 1699L2488.56 1695L2482.56 1692L2476.56 1688L2470.56 1684L2464.56 1680L2459.56 1676L2454.56 1671L2449.56 1667L2445.56 1662L2441.56 1657L2438.56 1652L2435.56 1647L2432.56 1642L2429.56 1637L2427.56 1631L2426.56 1626L2425.56 1620L2424.56 1614V1609V1603L2425.56 1597L2426.56 1591L2427.56 1586Z"
            fill="#B2B3B3" />
        <path
            d="M2602.56 1722C2700.86 1722 2780.56 1671.41 2780.56 1609C2780.56 1546.59 2700.86 1496 2602.56 1496C2504.25 1496 2424.56 1546.59 2424.56 1609C2424.56 1671.41 2504.25 1722 2602.56 1722Z"
            fill="#289FD9" />
        <path fill-rule="evenodd" clip-rule="evenodd"
            d="M2842.56 1435L2827.56 1478L2826.56 1483L2824.56 1489V1495L2823.56 1501L2824.56 1506V1512L2826.56 1518L2827.56 1523L2829.56 1529L2831.56 1534L2834.56 1539L2837.56 1544L2841.56 1549L2845.56 1554L2849.56 1559L2854.56 1563L2859.56 1568L2864.56 1572L2870.56 1576L2876.56 1580L2882.56 1584L2888.56 1587L2895.56 1591L2902.56 1594L2909.56 1597L2917.56 1600L2924.56 1602L2932.56 1604L2940.56 1606L2948.56 1608L2957.56 1610L2965.56 1611L2974.56 1612L2983.56 1613H2992.56H3001.56H3010.56H3019.56L3028.56 1612L3037.56 1611L3046.56 1610L3054.56 1608L3062.56 1606L3071.56 1604L3078.56 1602L3086.56 1600L3093.56 1597L3101.56 1594L3108.56 1591L3114.56 1587L3121.56 1584L3127.56 1580L3133.56 1576L3139.56 1572L3144.56 1568L3149.56 1563L3153.56 1559L3158.56 1554L3162.56 1549L3165.56 1544L3168.56 1539L3171.56 1534L3174.56 1529L3189.56 1486L3187.56 1491L3184.56 1496L3181.56 1501L3177.56 1506L3173.56 1511L3169.56 1516L3164.56 1520L3159.56 1525L3154.56 1529L3148.56 1533L3142.56 1537L3136.56 1541L3130.56 1544L3123.56 1548L3116.56 1551L3109.56 1554L3101.56 1557L3094.56 1559L3086.56 1561L3078.56 1563L3070.56 1565L3061.56 1567L3053.56 1568L3044.56 1569L3035.56 1570H3026.56H3017.56H3008.56H2999.56L2990.56 1569L2981.56 1568L2972.56 1567L2964.56 1565L2956.56 1563L2947.56 1561L2940.56 1559L2932.56 1557L2924.56 1554L2917.56 1551L2910.56 1548L2904.56 1544L2897.56 1541L2891.56 1537L2885.56 1533L2879.56 1529L2874.56 1525L2869.56 1520L2865.56 1516L2860.56 1511L2856.56 1506L2853.56 1501L2850.56 1496L2847.56 1491L2844.56 1486L2842.56 1480L2841.56 1475L2840.56 1469L2839.56 1463V1458V1452L2840.56 1446L2841.56 1440L2842.56 1435Z"
            fill="#B2B3B3" />
        <path
            d="M3017.56 1571C3115.86 1571 3195.56 1520.41 3195.56 1458C3195.56 1395.59 3115.86 1345 3017.56 1345C2919.25 1345 2839.56 1395.59 2839.56 1458C2839.56 1520.41 2919.25 1571 3017.56 1571Z"
            fill="#289FD9" />
        <path fill-rule="evenodd" clip-rule="evenodd"
            d="M1647.56 1439L1632.56 1482L1630.56 1487L1629.56 1493V1499L1628.56 1504L1629.56 1510V1516L1630.56 1521L1632.56 1527L1634.56 1532L1636.56 1538L1639.56 1543L1642.56 1548L1646.56 1553L1650.56 1558L1654.56 1563L1659.56 1567L1664.56 1572L1669.56 1576L1675.56 1580L1680.56 1584L1687.56 1588L1693.56 1591L1700.56 1595L1707.56 1598L1714.56 1601L1721.56 1603L1729.56 1606L1737.56 1608L1745.56 1610L1753.56 1612L1762.56 1613L1770.56 1615L1779.56 1616H1788.56L1797.56 1617H1806.56H1815.56L1824.56 1616H1833.56L1842.56 1615L1851.56 1613L1859.56 1612L1867.56 1610L1875.56 1608L1883.56 1606L1891.56 1603L1898.56 1601L1906.56 1598L1913.56 1595L1919.56 1591L1926.56 1588L1932.56 1584L1938.56 1580L1943.56 1576L1949.56 1572L1954.56 1567L1958.56 1563L1962.56 1558L1966.56 1553L1970.56 1548L1973.56 1543L1976.56 1538L1978.56 1532L1994.56 1489L1991.56 1495L1989.56 1500L1985.56 1505L1982.56 1510L1978.56 1515L1974.56 1520L1969.56 1524L1964.56 1529L1959.56 1533L1953.56 1537L1947.56 1541L1941.56 1545L1935.56 1548L1928.56 1552L1921.56 1555L1914.56 1558L1906.56 1560L1899.56 1563L1891.56 1565L1883.56 1567L1874.56 1569L1866.56 1570L1857.56 1572L1849.56 1573H1840.56L1831.56 1574H1822.56H1812.56L1803.56 1573H1794.56L1786.56 1572L1777.56 1570L1769.56 1569L1760.56 1567L1752.56 1565L1744.56 1563L1737.56 1560L1729.56 1558L1722.56 1555L1715.56 1552L1708.56 1548L1702.56 1545L1696.56 1541L1690.56 1537L1684.56 1533L1679.56 1529L1674.56 1524L1669.56 1520L1665.56 1515L1661.56 1510L1658.56 1505L1654.56 1500L1652.56 1495L1649.56 1489L1647.56 1484L1646.56 1478L1645.56 1473L1644.56 1467V1461V1456L1645.56 1450L1646.56 1444L1647.56 1439Z"
            fill="#B2B3B3" />
        <path
            d="M1822.56 1574C1920.86 1574 2000.56 1523.41 2000.56 1461C2000.56 1398.59 1920.86 1348 1822.56 1348C1724.25 1348 1644.56 1398.59 1644.56 1461C1644.56 1523.41 1724.25 1574 1822.56 1574Z"
            fill="#289FD9" />
        <path fill-rule="evenodd" clip-rule="evenodd"
            d="M2073.56 1318L2058.56 1361L2056.56 1367L2055.56 1372L2054.56 1378V1384V1390L2055.56 1395L2056.56 1401L2058.56 1406L2060.56 1412L2062.56 1417L2065.56 1423L2068.56 1428L2072.56 1433L2075.56 1437L2080.56 1442L2084.56 1447L2089.56 1451L2095.56 1455L2100.56 1459L2106.56 1463L2112.56 1467L2119.56 1471L2125.56 1474L2132.56 1477L2140.56 1480L2147.56 1483L2155.56 1485L2163.56 1488L2171.56 1490L2179.56 1491L2187.56 1493L2196.56 1494L2205.56 1495L2214.56 1496H2223.56H2232.56H2241.56H2250.56L2259.56 1495L2268.56 1494L2276.56 1493L2285.56 1491L2293.56 1490L2301.56 1488L2309.56 1485L2317.56 1483L2324.56 1480L2331.56 1477L2338.56 1474L2345.56 1471L2351.56 1467L2358.56 1463L2363.56 1459L2369.56 1455L2374.56 1451L2379.56 1447L2384.56 1442L2388.56 1437L2392.56 1433L2396.56 1428L2399.56 1423L2402.56 1417L2404.56 1412L2419.56 1369L2417.56 1374L2414.56 1380L2411.56 1385L2408.56 1390L2404.56 1394L2399.56 1399L2395.56 1404L2390.56 1408L2384.56 1412L2379.56 1416L2373.56 1420L2367.56 1424L2360.56 1428L2354.56 1431L2347.56 1434L2339.56 1437L2332.56 1440L2324.56 1442L2316.56 1445L2308.56 1447L2300.56 1448L2292.56 1450L2283.56 1451L2274.56 1452L2265.56 1453H2256.56H2247.56H2238.56H2229.56L2220.56 1452L2211.56 1451L2203.56 1450L2194.56 1448L2186.56 1447L2178.56 1445L2170.56 1442L2162.56 1440L2155.56 1437L2148.56 1434L2141.56 1431L2134.56 1428L2128.56 1424L2122.56 1420L2116.56 1416L2110.56 1412L2105.56 1408L2100.56 1404L2095.56 1399L2091.56 1394L2087.56 1390L2083.56 1385L2080.56 1380L2077.56 1374L2075.56 1369L2073.56 1363L2071.56 1358L2070.56 1352V1347L2069.56 1341L2070.56 1335V1329L2071.56 1324L2073.56 1318Z"
            fill="#B2B3B3" />
        <path
            d="M2247.56 1454C2345.86 1454 2425.56 1403.41 2425.56 1341C2425.56 1278.59 2345.86 1228 2247.56 1228C2149.25 1228 2069.56 1278.59 2069.56 1341C2069.56 1403.41 2149.25 1454 2247.56 1454Z"
            fill="#289FD9" />
        <path fill-rule="evenodd" clip-rule="evenodd"
            d="M2488.56 1167L2473.56 1210L2471.56 1216L2470.56 1221L2469.56 1227V1233V1239L2470.56 1244L2471.56 1250L2473.56 1256L2475.56 1261L2477.56 1266L2480.56 1272L2483.56 1277L2487.56 1282L2491.56 1287L2495.56 1291L2500.56 1296L2504.56 1300L2510.56 1304L2515.56 1309L2521.56 1312L2527.56 1316L2534.56 1320L2541.56 1323L2548.56 1326L2555.56 1329L2562.56 1332L2570.56 1334L2578.56 1337L2586.56 1339L2594.56 1340L2603.56 1342L2611.56 1343L2620.56 1344L2629.56 1345H2638.56H2647.56H2656.56H2665.56L2674.56 1344L2683.56 1343L2691.56 1342L2700.56 1340L2708.56 1339L2716.56 1337L2724.56 1334L2732.56 1332L2739.56 1329L2746.56 1326L2753.56 1323L2760.56 1320L2767.56 1316L2773.56 1312L2779.56 1309L2784.56 1304L2789.56 1300L2794.56 1296L2799.56 1291L2803.56 1287L2807.56 1282L2811.56 1277L2814.56 1272L2817.56 1266L2819.56 1261L2835.56 1218L2832.56 1223L2829.56 1229L2826.56 1234L2823.56 1239L2819.56 1243L2814.56 1248L2810.56 1253L2805.56 1257L2800.56 1261L2794.56 1266L2788.56 1269L2782.56 1273L2775.56 1277L2769.56 1280L2762.56 1283L2755.56 1286L2747.56 1289L2739.56 1291L2732.56 1294L2724.56 1296L2715.56 1297L2707.56 1299L2698.56 1300L2689.56 1301L2681.56 1302H2672.56H2662.56H2653.56H2644.56L2635.56 1301L2627.56 1300L2618.56 1299L2609.56 1297L2601.56 1296L2593.56 1294L2585.56 1291L2578.56 1289L2570.56 1286L2563.56 1283L2556.56 1280L2549.56 1277L2543.56 1273L2537.56 1269L2531.56 1266L2525.56 1261L2520.56 1257L2515.56 1253L2510.56 1248L2506.56 1243L2502.56 1239L2499.56 1234L2495.56 1229L2493.56 1223L2490.56 1218L2488.56 1213L2487.56 1207L2485.56 1201V1196V1190V1184V1178L2487.56 1173L2488.56 1167Z"
            fill="#B2B3B3" />
        <path
            d="M2662.56 1303C2760.86 1303 2840.56 1252.41 2840.56 1190C2840.56 1127.59 2760.86 1077 2662.56 1077C2564.25 1077 2484.56 1127.59 2484.56 1190C2484.56 1252.41 2564.25 1303 2662.56 1303Z"
            fill="#289FD9" />
        <path fill-rule="evenodd" clip-rule="evenodd"
            d="M1283.56 1191L1268.56 1234L1266.56 1239L1265.56 1245L1264.56 1250V1256V1262L1265.56 1268L1266.56 1273L1268.56 1279L1270.56 1284L1272.56 1290L1275.56 1295L1278.56 1300L1282.56 1305L1286.56 1310L1290.56 1315L1294.56 1319L1299.56 1324L1305.56 1328L1310.56 1332L1316.56 1336L1322.56 1340L1329.56 1343L1336.56 1346L1342.56 1350L1350.56 1353L1357.56 1355L1365.56 1358L1373.56 1360L1381.56 1362L1389.56 1364L1397.56 1365L1406.56 1367L1415.56 1368H1424.56L1433.56 1369H1442.56H1451.56L1460.56 1368H1469.56L1478.56 1367L1486.56 1365L1495.56 1364L1503.56 1362L1511.56 1360L1519.56 1358L1527.56 1355L1534.56 1353L1541.56 1350L1548.56 1346L1555.56 1343L1561.56 1340L1568.56 1336L1574.56 1332L1579.56 1328L1584.56 1324L1589.56 1319L1594.56 1315L1598.56 1310L1602.56 1305L1606.56 1300L1609.56 1295L1612.56 1290L1614.56 1284L1629.56 1241L1627.56 1247L1624.56 1252L1621.56 1257L1618.56 1262L1614.56 1267L1609.56 1272L1605.56 1276L1600.56 1281L1594.56 1285L1589.56 1289L1583.56 1293L1577.56 1297L1570.56 1300L1564.56 1303L1557.56 1307L1549.56 1310L1542.56 1312L1534.56 1315L1526.56 1317L1518.56 1319L1510.56 1321L1502.56 1322L1493.56 1324L1484.56 1325H1475.56L1466.56 1326H1457.56H1448.56L1439.56 1325H1430.56L1421.56 1324L1413.56 1322L1404.56 1321L1396.56 1319L1388.56 1317L1380.56 1315L1373.56 1312L1365.56 1310L1358.56 1307L1351.56 1303L1344.56 1300L1338.56 1297L1332.56 1293L1326.56 1289L1320.56 1285L1315.56 1281L1310.56 1276L1305.56 1272L1301.56 1267L1297.56 1262L1293.56 1257L1290.56 1252L1287.56 1247L1285.56 1241L1283.56 1236L1282.56 1230L1280.56 1225V1219L1279.56 1213L1280.56 1207V1202L1282.56 1196L1283.56 1191Z"
            fill="#B2B3B3" />
        <path
            d="M1457.56 1326C1555.86 1326 1635.56 1275.41 1635.56 1213C1635.56 1150.59 1555.86 1100 1457.56 1100C1359.25 1100 1279.56 1150.59 1279.56 1213C1279.56 1275.41 1359.25 1326 1457.56 1326Z"
            fill="#289FD9" />
        <path fill-rule="evenodd" clip-rule="evenodd"
            d="M1723.56 1064L1707.56 1107L1706.56 1112L1705.56 1118L1704.56 1124V1129V1135L1705.56 1141L1706.56 1147L1707.56 1152L1709.56 1158L1712.56 1163L1715.56 1168L1718.56 1173L1721.56 1178L1725.56 1183L1730.56 1188L1734.56 1192L1739.56 1197L1744.56 1201L1750.56 1205L1756.56 1209L1762.56 1213L1769.56 1216L1775.56 1220L1782.56 1223L1789.56 1226L1797.56 1228L1805.56 1231L1812.56 1233L1821.56 1235L1829.56 1237L1837.56 1238L1846.56 1240L1855.56 1241H1864.56L1873.56 1242H1882.56H1891.56L1900.56 1241H1909.56L1918.56 1240L1926.56 1238L1935.56 1237L1943.56 1235L1951.56 1233L1959.56 1231L1966.56 1228L1974.56 1226L1981.56 1223L1988.56 1220L1995.56 1216L2001.56 1213L2007.56 1209L2013.56 1205L2019.56 1201L2024.56 1197L2029.56 1192L2034.56 1188L2038.56 1183L2042.56 1178L2046.56 1173L2049.56 1168L2052.56 1163L2054.56 1158L2069.56 1115L2067.56 1120L2064.56 1125L2061.56 1130L2057.56 1135L2053.56 1140L2049.56 1145L2045.56 1149L2040.56 1154L2034.56 1158L2029.56 1162L2023.56 1166L2017.56 1170L2010.56 1173L2003.56 1177L1996.56 1180L1989.56 1183L1982.56 1185L1974.56 1188L1966.56 1190L1958.56 1192L1950.56 1194L1942.56 1195L1933.56 1197L1924.56 1198H1915.56L1906.56 1199H1897.56H1888.56L1879.56 1198H1870.56L1861.56 1197L1853.56 1195L1844.56 1194L1836.56 1192L1828.56 1190L1820.56 1188L1812.56 1185L1805.56 1183L1798.56 1180L1791.56 1177L1784.56 1173L1778.56 1170L1771.56 1166L1765.56 1162L1760.56 1158L1755.56 1154L1750.56 1149L1745.56 1145L1741.56 1140L1737.56 1135L1733.56 1130L1730.56 1125L1727.56 1120L1725.56 1115L1723.56 1109L1721.56 1104L1720.56 1098L1719.56 1092V1086V1081L1720.56 1075L1721.56 1069L1723.56 1064Z"
            fill="#B2B3B3" />
        <path
            d="M1897.56 1199C1995.86 1199 2075.56 1148.41 2075.56 1086C2075.56 1023.59 1995.86 973 1897.56 973C1799.25 973 1719.56 1023.59 1719.56 1086C1719.56 1148.41 1799.25 1199 1897.56 1199Z"
            fill="#289FD9" />
        <path fill-rule="evenodd" clip-rule="evenodd"
            d="M2138.56 913L2123.56 956L2121.56 961L2120.56 967L2119.56 973V979V984L2120.56 990L2121.56 996L2123.56 1001L2125.56 1007L2127.56 1012L2130.56 1017L2133.56 1022L2137.56 1027L2140.56 1032L2145.56 1037L2149.56 1041L2154.56 1046L2160.56 1050L2165.56 1054L2171.56 1058L2177.56 1062L2184.56 1065L2190.56 1069L2197.56 1072L2205.56 1075L2212.56 1077L2220.56 1080L2228.56 1082L2236.56 1084L2244.56 1086L2252.56 1088L2261.56 1089L2270.56 1090H2279.56L2288.56 1091H2297.56H2306.56L2315.56 1090H2324.56L2333.56 1089L2341.56 1088L2350.56 1086L2358.56 1084L2366.56 1082L2374.56 1080L2382.56 1077L2389.56 1075L2396.56 1072L2403.56 1069L2410.56 1065L2416.56 1062L2423.56 1058L2428.56 1054L2434.56 1050L2439.56 1046L2444.56 1041L2449.56 1037L2453.56 1032L2457.56 1027L2461.56 1022L2464.56 1017L2467.56 1012L2469.56 1007L2484.56 964L2482.56 969L2479.56 974L2476.56 979L2472.56 984L2469.56 989L2464.56 994L2460.56 998L2455.56 1003L2449.56 1007L2444.56 1011L2438.56 1015L2432.56 1019L2425.56 1022L2419.56 1026L2412.56 1029L2404.56 1032L2397.56 1034L2389.56 1037L2381.56 1039L2373.56 1041L2365.56 1043L2357.56 1045L2348.56 1046L2339.56 1047H2330.56L2321.56 1048H2312.56H2303.56L2294.56 1047H2285.56L2276.56 1046L2268.56 1045L2259.56 1043L2251.56 1041L2243.56 1039L2235.56 1037L2227.56 1034L2220.56 1032L2213.56 1029L2206.56 1026L2199.56 1022L2193.56 1019L2186.56 1015L2181.56 1011L2175.56 1007L2170.56 1003L2165.56 998L2160.56 994L2156.56 989L2152.56 984L2148.56 979L2145.56 974L2142.56 969L2140.56 964L2138.56 958L2136.56 953L2135.56 947V941L2134.56 935L2135.56 930V924L2136.56 918L2138.56 913Z"
            fill="#B2B3B3" />
        <path
            d="M2312.56 1048C2410.86 1048 2490.56 997.408 2490.56 935C2490.56 872.592 2410.86 822 2312.56 822C2214.25 822 2134.56 872.592 2134.56 935C2134.56 997.408 2214.25 1048 2312.56 1048Z"
            fill="#289FD9" />
        <path
            d="M3027.56 449C3149.06 449 3247.56 350.503 3247.56 229C3247.56 107.497 3149.06 9 3027.56 9C2906.05 9 2807.56 107.497 2807.56 229C2807.56 350.503 2906.05 449 3027.56 449Z"
            fill="url(#paint2_radial_1_2)" stroke="#9D9E9E" stroke-width="17.63" />
        <path fill-rule="evenodd" clip-rule="evenodd"
            d="M1311.56 2062C1290.56 2062 1268.56 2060 1246.56 2057C982.556 2024 768.556 1821 768.556 1604V1477L1311.56 1936V2062Z"
            fill="#B2B3B3" stroke="#9D9E9E" stroke-width="17.63" stroke-linejoin="round" />
        <path fill-rule="evenodd" clip-rule="evenodd"
            d="M1310.56 1935C1289.56 1935 1268.56 1933 1246.56 1930C982.556 1897 768.556 1694 768.556 1477L1310.56 1935Z"
            fill="#C5C6C6" stroke="#9D9E9E" stroke-width="17.63" stroke-linejoin="round" />
    </g>
    <defs>
        <linearGradient id="paint0_linear_1_2" x1="2981.96" y1="618.43" x2="3072.26" y2="618.43"
            gradientUnits="userSpaceOnUse">
            <stop stop-color="#B5B1B4" />
            <stop offset="0.12157" stop-color="#E5E5E1" />
            <stop offset="0.25098" stop-color="white" />
            <stop offset="0.38824" stop-color="#CCCECB" />
            <stop offset="0.58039" stop-color="#B5B1B4" />
            <stop offset="0.78039" stop-color="#797D7A" />
            <stop offset="1" stop-color="#626760" />
        </linearGradient>
        <linearGradient id="paint1_linear_1_2" x1="2068.96" y1="3763.5" x2="3974.36" y2="1334.5"
            gradientUnits="userSpaceOnUse">
            <stop stop-color="#D9DADA" />
            <stop offset="1" stop-color="#EBECEC" />
        </linearGradient>
        <radialGradient id="paint2_radial_1_2" cx="0" cy="0" r="1" gradientUnits="userSpaceOnUse"
            gradientTransform="translate(2925.76 154.23) scale(220.32)">
            <stop offset="0.0625" stop-color="#03A8F9" />
            <stop offset="0.255208" stop-color="#00ABFE" />
            <stop offset="0.666667" stop-color="#29A0DA" />
            <stop offset="1" stop-color="#009AE6" />
        </radialGradient>
        <clipPath id="clip0_1_2">
            <rect width="5643" height="4310" fill="white" />
        </clipPath>
    </defs>
</svg>