<svg width="62" height="73" viewBox="0 0 62 73" fill="none" xmlns="http://www.w3.org/2000/svg">
  <g clip-path="url(#clip0_6_4859)">
    <path
      d="M16.0566 27.2172C27.8095 20.5604 39.5625 13.9037 51.3154 7.24696C54.6478 5.35677 57.9951 3.48153 61.3051 1.54652C61.7609 1.28503 62.1344 0.73964 61.5666 0.388499C60.9987 0.0373578 59.9975 0.373557 59.467 0.664929C47.6244 7.17225 35.9238 13.956 24.1708 20.6127L14.1438 26.2908C13.6657 26.5597 13.2846 27.1425 13.8749 27.5011C14.4651 27.8597 15.5186 27.5235 16.0715 27.2097L16.0566 27.2172Z"
      fill="white" />
    <path
      d="M59.1084 1.21778C58.9066 16.8398 58.5555 32.4619 58.0474 48.0764C57.9054 52.5367 57.7411 56.9969 57.5767 61.4572C57.5319 62.6376 60.4234 62.0548 60.4608 61.0985C61.0585 45.484 61.4993 29.8694 61.7907 14.2474C61.8729 9.78711 61.9402 5.3194 61.9999 0.859164C62.0149 -0.328739 59.1233 0.268948 59.1159 1.21778H59.1084Z"
      fill="white" />
    <path
      d="M13.7331 27.1724C26.0016 35.4727 37.1494 45.2599 48.4466 54.8004C51.6146 57.4751 54.805 60.1348 58.0327 62.7422C58.5483 63.1606 59.3776 63.0186 59.9455 62.7721C60.2294 62.6526 61.2306 62.0325 60.7151 61.6141C49.1041 52.2304 38.046 42.1594 26.181 33.0895C22.8635 30.5568 19.4863 28.1062 16.027 25.7678C15.2499 25.2448 12.5825 26.3879 13.7331 27.1649V27.1724Z"
      fill="white" />
    <path
      d="M58.9144 0.79192C50.4639 10.1607 42.1629 19.6639 34.0113 29.2866C31.6876 32.0285 29.3788 34.7854 27.0776 37.5497C26.6293 38.0876 27.4586 38.379 27.8621 38.4014C28.5495 38.4387 29.3265 38.1474 29.7674 37.6169C37.8368 27.9194 46.0482 18.3415 54.4164 8.89805C56.7999 6.20846 59.1983 3.52634 61.6042 0.851689C62.0824 0.321242 61.2007 0.0223982 60.8197 -1.50553e-05C60.1099 -0.0373705 59.3851 0.268944 58.9144 0.784449V0.79192Z"
      fill="white" />
    <path
      d="M55.5745 2.69707C50.6283 13.8514 45.9062 25.1178 41.4381 36.4739C40.1679 39.6939 38.9202 42.9214 37.6873 46.1564C37.4483 46.7765 38.6138 46.8064 38.9351 46.7765C39.5403 46.7093 40.3398 46.4179 40.5789 45.7978C44.9199 34.3894 49.4926 23.0707 54.3118 11.8566C55.6792 8.67394 57.0614 5.5062 58.4661 2.33846C58.7351 1.72583 57.5097 1.68848 57.2183 1.71836C56.5832 1.79307 55.851 2.08444 55.5745 2.69707Z"
      fill="white" />
    <path
      d="M37.3583 45.4765C35.3185 48.5023 33.1293 51.4085 30.9924 54.3671C30.6113 54.8901 31.3137 55.159 31.7321 55.174C32.3821 55.1964 33.1218 54.9424 33.5402 54.4269C35.834 51.5879 37.9186 48.5621 39.9584 45.5363C40.3245 44.9909 39.6446 44.7294 39.2038 44.7145C38.5911 44.6995 37.7244 44.9311 37.3583 45.4765Z"
      fill="white" />
    <path
      d="M28.0115 38.6479C28.6914 44.7219 29.1995 50.8482 30.111 56.8998C30.253 57.8412 32.9278 57.1688 32.8531 56.1676C32.3899 50.0638 31.5232 43.9748 30.8358 37.8934C30.7312 36.9595 27.8919 37.587 28.0115 38.6479Z"
      fill="white" />
    <path
      d="M34.7582 55.7044C36.0209 54.5464 37.3285 53.4407 38.6808 52.3873C40.0332 51.3339 41.423 50.4448 42.8351 49.4063C43.2535 49.0925 43.1713 48.6144 42.7006 48.4575C42.1029 48.2558 41.3632 48.4575 40.8402 48.7638C39.2935 49.6603 37.8365 50.781 36.4244 51.8718C35.0123 52.9626 33.7271 54.0608 32.4495 55.2338C32.2926 55.3757 32.0983 55.6223 32.1655 55.8539C32.2328 56.0855 32.5167 56.205 32.7259 56.2498C33.376 56.3918 34.2651 56.1602 34.7657 55.7044H34.7582Z"
      fill="white" />
    <path
      d="M37.3507 51.3787C38.2399 50.527 39.1365 49.6827 40.0256 48.8236C40.1676 48.6816 40.3469 48.4724 40.2871 48.2483C40.2273 48.0242 39.9658 47.9196 39.7716 47.8822C39.4428 47.8224 39.0916 47.8449 38.7778 47.942C38.464 48.0391 38.1278 48.1586 37.8887 48.3902C36.9846 49.2345 36.088 50.0862 35.1914 50.9379C35.042 51.0798 34.8627 51.2965 34.9224 51.5206C34.9822 51.7448 35.2512 51.8568 35.4455 51.8942C35.7742 51.954 36.1329 51.9315 36.4541 51.8344C36.7754 51.7373 37.1116 51.6103 37.3507 51.3787Z"
      fill="white" />
    <path
      d="M33.9661 52.7758L33.6971 52.9102C33.3982 53.0597 33.8914 52.8131 33.6523 52.9327L35.2512 53.7022C36.7455 52.0735 38.2997 50.5045 39.8837 48.958C40.0256 48.8161 40.2049 48.6069 40.1452 48.3828C40.0854 48.1586 39.8239 48.054 39.6296 48.0167C39.0244 47.9046 38.2025 48.0839 37.7393 48.5247C36.1329 50.0413 34.5937 51.6327 33.1068 53.2689C32.9873 53.4033 32.7631 53.6275 32.8453 53.8441C32.9126 54.0234 33.062 54.1131 33.2413 54.1729C33.8241 54.3596 34.4966 54.1729 35.0121 53.8815C35.2139 53.7694 35.4156 53.6723 35.6099 53.5677C35.976 53.3734 36.3944 52.7832 35.8415 52.5292C35.2363 52.2603 34.5115 52.4993 33.9586 52.7758H33.9661Z"
      fill="white" />
    <path
      d="M38.8824 50.3775C39.4652 49.4437 40.048 48.5098 40.6083 47.5609C40.713 47.3742 40.7578 47.1799 40.6083 47.0006C40.4589 46.8213 40.1003 46.7615 39.8761 46.7615C39.5175 46.7615 39.1439 46.8213 38.8151 46.9707C38.5462 47.0903 38.2548 47.2472 38.0904 47.5012C37.4852 48.4276 36.9099 49.3764 36.3271 50.3178C36.215 50.5045 36.1776 50.7063 36.3271 50.8856C36.4765 51.0649 36.8426 51.1247 37.0668 51.1247C37.4329 51.1247 37.8139 51.0649 38.1427 50.908C38.4117 50.7885 38.718 50.6316 38.8824 50.3701V50.3775Z"
      fill="white" />
    <path
      d="M38.4866 48.6069C38.8901 49.1 39.2936 49.5931 39.712 50.0787C39.7942 50.1609 39.8988 50.2207 40.0183 50.2431C40.1528 50.2954 40.2948 50.3178 40.4442 50.3178C40.6235 50.3178 40.7954 50.3029 40.9672 50.2655C41.154 50.2356 41.3334 50.1833 41.5052 50.1086L41.8115 49.9517C41.9759 49.8546 42.1179 49.7351 42.23 49.5782L42.3196 49.3839C42.3495 49.2494 42.3196 49.1299 42.2225 49.0253C41.834 48.5247 41.4305 48.0316 41.0345 47.546C40.9448 47.4564 40.8477 47.4041 40.7281 47.3817C40.5937 47.3294 40.4442 47.3069 40.2948 47.3069C40.1155 47.3069 39.9361 47.3219 39.7643 47.3592C39.5775 47.3891 39.3982 47.4414 39.2189 47.5161L38.9125 47.673C38.7482 47.7702 38.6062 47.8972 38.4866 48.0466L38.3895 48.2483C38.3596 48.3903 38.3895 48.5098 38.4866 48.6144V48.6069Z"
      fill="white" />
    <path
      d="M3.73579 37.5422L0.26893 41.0088C0.126969 41.1508 -0.0523518 41.3525 0.00742168 41.5766C0.0671951 41.7858 0.328704 41.9053 0.515496 41.9352C0.836778 41.995 1.18048 41.9726 1.49429 41.8755C1.8081 41.7783 2.14432 41.6663 2.36847 41.4347L5.8428 37.9681C5.98477 37.8261 6.16409 37.6244 6.10431 37.4003C6.04454 37.1911 5.78303 37.0716 5.59624 37.0417C5.27496 36.9819 4.93126 37.0043 4.61745 37.1014C4.30364 37.1986 3.96741 37.3106 3.74326 37.5422H3.73579Z"
      fill="white" />
    <path
      d="M14.7492 43.6611L8.42811 49.9891C8.28615 50.131 8.10683 50.3327 8.1666 50.5643C8.22637 50.7735 8.48788 50.8931 8.68215 50.9304C9.27241 51.0425 10.1167 50.8707 10.5575 50.4299L16.8861 44.1018C17.028 43.9599 17.2073 43.7507 17.1476 43.5266C17.0878 43.3099 16.8263 43.1978 16.632 43.1605C16.0418 43.0484 15.19 43.2203 14.7492 43.6685V43.6611Z"
      fill="white" />
    <path
      d="M36.9846 59.5819C35.012 61.756 33.0395 63.9376 31.0745 66.1117C30.9325 66.2611 30.7457 66.4553 30.813 66.6869C30.8727 66.9036 31.1417 67.0157 31.3285 67.053C31.8964 67.1576 32.8004 67.0007 33.2188 66.545C35.1988 64.3709 37.1714 62.1893 39.1439 60.0152C39.2859 59.8584 39.4726 59.6716 39.4129 59.4325C39.3531 59.2158 39.0841 59.0963 38.8899 59.0589C38.3145 58.9544 37.403 59.1112 36.9846 59.567V59.5819Z"
      fill="white" />
    <path
      d="M55.9479 66.3059C53.9753 68.211 52.0103 70.1161 50.0378 72.0213C49.8958 72.1632 49.709 72.3724 49.7688 72.5965C49.8285 72.8207 50.0975 72.9327 50.2918 72.9626C50.897 73.0747 51.7264 72.8954 52.1896 72.4546C54.1696 70.5495 56.1421 68.6443 58.1146 66.7392C58.2641 66.5973 58.4434 66.3806 58.3836 66.1565C58.3238 65.9323 58.0549 65.8203 57.8606 65.7829C57.2479 65.6708 56.4111 65.8502 55.9479 66.2984V66.3059Z"
      fill="white" />
  </g>
  <defs>
    <clipPath id="clip0_6_4859">
      <rect width="62" height="73" fill="white" />
    </clipPath>
  </defs>
</svg>